<svg xmlns="http://www.w3.org/2000/svg" width="541" height="297" viewBox="0 0 541 297">
  <g id="ui-designe-illustration" transform="translate(-1007 -5884)">
    <rect id="viewport" width="541" height="297" rx="8" transform="translate(1007 5884)" fill="#222127"/>
    <g id="content">
      <rect id="Rectangle_27" data-name="Rectangle 27" width="35" height="8" rx="4" transform="translate(1033 5913)" fill="#3ab4b0"/>
      <rect id="Rectangle_40" data-name="Rectangle 40" width="87" height="8" rx="4" transform="translate(1234 5913)" fill="#3ab4b0"/>
      <rect id="Rectangle_28" data-name="Rectangle 28" width="35" height="9" rx="4" transform="translate(1473 5913)" fill="#db458e"/>
      <g id="Group_31" data-name="Group 31">
        <path id="Subtraction_3" data-name="Subtraction 3" d="M-217,425h-12.609a5.006,5.006,0,0,1-2.391-.608V247.608a5,5,0,0,1,2.391-.608H-217a5.006,5.006,0,0,1,5,5V420A5.005,5.005,0,0,1-217,425Z" transform="translate(1239 5706)" fill="#3ab4b0"/>
        <g id="Group_30" data-name="Group 30" transform="translate(1 21)">
          <rect id="Rectangle_33" data-name="Rectangle 33" width="7" height="7" rx="2" transform="translate(1012 5964)" fill="#121117"/>
          <rect id="Rectangle_34" data-name="Rectangle 34" width="7" height="7" rx="2" transform="translate(1012 5982)" fill="#121117"/>
          <rect id="Rectangle_35" data-name="Rectangle 35" width="7" height="7" rx="2" transform="translate(1012 5999)" fill="#121117"/>
          <rect id="Rectangle_36" data-name="Rectangle 36" width="7" height="7" rx="2" transform="translate(1012 6017)" fill="#121117"/>
          <rect id="Rectangle_37" data-name="Rectangle 37" width="7" height="7" rx="2" transform="translate(1012 6035)" fill="#121117"/>
          <rect id="Rectangle_38" data-name="Rectangle 38" width="7" height="7" rx="2" transform="translate(1012 6052)" fill="#121117"/>
          <rect id="Rectangle_39" data-name="Rectangle 39" width="7" height="7" rx="2" transform="translate(1012 6070)" fill="#121117"/>
        </g>
      </g>
      <g id="Group_34" data-name="Group 34">
        <rect id="Rectangle_29" data-name="Rectangle 29" width="51" height="107" rx="5" transform="translate(1132 5988)" fill="#db458e"/>
        <rect id="Rectangle_43" data-name="Rectangle 43" width="9" height="3" rx="1.5" transform="translate(1137 5997)" fill="#121117"/>
        <rect id="Rectangle_44" data-name="Rectangle 44" width="7" height="3" rx="1.5" transform="translate(1170 5997)" fill="#121117"/>
        <rect id="Rectangle_45" data-name="Rectangle 45" width="31" height="2" rx="1" transform="translate(1137 6048)" fill="#121117"/>
        <rect id="Rectangle_51" data-name="Rectangle 51" width="31" height="2" rx="1" transform="translate(1137 6013)" fill="#121117"/>
        <rect id="Rectangle_46" data-name="Rectangle 46" width="40" height="2" rx="1" transform="translate(1137 6056)" fill="#121117"/>
        <rect id="Rectangle_52" data-name="Rectangle 52" width="40" height="2" rx="1" transform="translate(1137 6021)" fill="#121117"/>
        <rect id="Rectangle_47" data-name="Rectangle 47" width="40" height="2" rx="1" transform="translate(1137 6065)" fill="#121117"/>
        <rect id="Rectangle_50" data-name="Rectangle 50" width="40" height="2" rx="1" transform="translate(1137 6030)" fill="#121117"/>
        <rect id="Rectangle_48" data-name="Rectangle 48" width="40" height="2" rx="1" transform="translate(1137 6073)" fill="#121117"/>
        <rect id="Rectangle_49" data-name="Rectangle 49" width="40" height="2" rx="1" transform="translate(1137 6039)" fill="#121117"/>
      </g>
      <g id="Group_35" data-name="Group 35">
        <rect id="Rectangle_30" data-name="Rectangle 30" width="211" height="108" rx="8" transform="translate(1213 5988)" fill="#3ab4b0"/>
        <rect id="Rectangle_55" data-name="Rectangle 55" width="52" height="2" rx="1" transform="translate(1239 6023)" fill="#121117"/>
        <rect id="Rectangle_56" data-name="Rectangle 56" width="52" height="2" rx="1" transform="translate(1332 6050)" fill="#121117"/>
        <rect id="Rectangle_57" data-name="Rectangle 57" width="67" height="2" rx="1" transform="translate(1239 6031)" fill="#121117"/>
        <rect id="Rectangle_58" data-name="Rectangle 58" width="67" height="2" rx="1" transform="translate(1317 6059)" fill="#121117"/>
        <rect id="Rectangle_59" data-name="Rectangle 59" width="67" height="2" rx="1" transform="translate(1239 6040)" fill="#121117"/>
        <rect id="Rectangle_60" data-name="Rectangle 60" width="67" height="2" rx="1" transform="translate(1317 6068)" fill="#121117"/>
        <rect id="Rectangle_53" data-name="Rectangle 53" width="9" height="3" rx="1.5" transform="translate(1224 5997)" fill="#121117"/>
        <rect id="Rectangle_54" data-name="Rectangle 54" width="7" height="3" rx="1.5" transform="translate(1407 5997)" fill="#121117"/>
      </g>
    </g>
  </g>
</svg>
